<?xml version="1.0" encoding="UTF-8" standalone="no"?>
<!-- Created with Inkscape (http://www.inkscape.org/) -->
<svg
   xmlns:dc="http://purl.org/dc/elements/1.1/"
   xmlns:cc="http://creativecommons.org/ns#"
   xmlns:rdf="http://www.w3.org/1999/02/22-rdf-syntax-ns#"
   xmlns:svg="http://www.w3.org/2000/svg"
   xmlns="http://www.w3.org/2000/svg"
   xmlns:xlink="http://www.w3.org/1999/xlink"
   xmlns:sodipodi="http://sodipodi.sourceforge.net/DTD/sodipodi-0.dtd"
   xmlns:inkscape="http://www.inkscape.org/namespaces/inkscape"
   width="210mm"
   height="297mm"
   id="svg2"
   sodipodi:version="0.32"
   inkscape:version="0.46"
   sodipodi:docname="mathtextlearner.svg"
   inkscape:output_extension="org.inkscape.output.svg.inkscape"
   inkscape:export-filename="/home/luis/programacion/pfc/MathTextRecognizer2/Common/Artwork/mathtextlearner48.png"
   inkscape:export-xdpi="21.31146"
   inkscape:export-ydpi="21.31146">
  <defs
     id="defs4">
    <inkscape:perspective
       sodipodi:type="inkscape:persp3d"
       inkscape:vp_x="0 : 526.18109 : 1"
       inkscape:vp_y="0 : 1000 : 0"
       inkscape:vp_z="744.09448 : 526.18109 : 1"
       inkscape:persp3d-origin="372.04724 : 350.78739 : 1"
       id="perspective10" />
    <radialGradient
       r="19.136078"
       fy="41.591846"
       fx="24.35099"
       cy="41.591846"
       cx="24.35099"
       gradientTransform="matrix(1,0,0,0.242494,0,31.50606)"
       gradientUnits="userSpaceOnUse"
       id="radialGradient7194"
       xlink:href="#linearGradient9806"
       inkscape:collect="always" />
    <linearGradient
       inkscape:collect="always"
       id="linearGradient9806">
      <stop
         style="stop-color:#000000;stop-opacity:1;"
         offset="0"
         id="stop9808" />
      <stop
         style="stop-color:#000000;stop-opacity:0;"
         offset="1"
         id="stop9810" />
    </linearGradient>
    <linearGradient
       y2="-6.8415799"
       x2="102.036"
       y1="-21.727716"
       x1="95.789368"
       gradientUnits="userSpaceOnUse"
       id="linearGradient6928"
       xlink:href="#linearGradient2044"
       inkscape:collect="always" />
    <linearGradient
       y2="-3.2652416"
       x2="103.94469"
       y1="-23.771338"
       x1="103.94469"
       gradientTransform="matrix(0.721542,0,0,0.742565,46.59758,23.70402)"
       gradientUnits="userSpaceOnUse"
       id="linearGradient6926"
       xlink:href="#linearGradient2044"
       inkscape:collect="always" />
    <linearGradient
       y2="-9.0341463"
       x2="105.70624"
       y1="-3.8887460"
       x1="105.70624"
       spreadMethod="pad"
       gradientUnits="userSpaceOnUse"
       id="linearGradient6924"
       xlink:href="#linearGradient6439"
       inkscape:collect="always" />
    <linearGradient
       y2="-6.8415799"
       x2="102.036"
       y1="-21.727716"
       x1="95.789368"
       gradientUnits="userSpaceOnUse"
       id="linearGradient6922"
       xlink:href="#linearGradient2044"
       inkscape:collect="always" />
    <linearGradient
       y2="-3.2652416"
       x2="103.94469"
       y1="-23.771338"
       x1="103.94469"
       gradientTransform="matrix(0.721542,0,0,0.742565,46.59758,23.70402)"
       gradientUnits="userSpaceOnUse"
       id="linearGradient6920"
       xlink:href="#linearGradient2044"
       inkscape:collect="always" />
    <linearGradient
       y2="-9.7151804"
       x2="105.70624"
       y1="-3.8887460"
       x1="105.70624"
       spreadMethod="pad"
       gradientUnits="userSpaceOnUse"
       id="linearGradient6918"
       xlink:href="#linearGradient6439"
       inkscape:collect="always" />
    <linearGradient
       y2="-6.8415799"
       x2="102.036"
       y1="-21.727716"
       x1="95.789368"
       gradientUnits="userSpaceOnUse"
       id="linearGradient6916"
       xlink:href="#linearGradient2044"
       inkscape:collect="always" />
    <linearGradient
       y2="-3.2652416"
       x2="103.94469"
       y1="-23.771338"
       x1="103.94469"
       gradientTransform="matrix(0.721542,0,0,0.742565,46.59758,23.70402)"
       gradientUnits="userSpaceOnUse"
       id="linearGradient6914"
       xlink:href="#linearGradient2044"
       inkscape:collect="always" />
    <linearGradient
       y2="-10.228497"
       x2="105.70624"
       y1="-3.8887460"
       x1="105.70624"
       spreadMethod="pad"
       gradientUnits="userSpaceOnUse"
       id="linearGradient6912"
       xlink:href="#linearGradient6439"
       inkscape:collect="always" />
    <linearGradient
       y2="-6.8415799"
       x2="102.036"
       y1="-21.727716"
       x1="95.789368"
       gradientUnits="userSpaceOnUse"
       id="linearGradient6910"
       xlink:href="#linearGradient2044"
       inkscape:collect="always" />
    <linearGradient
       y2="-3.2652416"
       x2="103.94469"
       y1="-23.771338"
       x1="103.94469"
       gradientTransform="matrix(0.721542,0,0,0.742565,46.59758,23.70402)"
       gradientUnits="userSpaceOnUse"
       id="linearGradient6908"
       xlink:href="#linearGradient2044"
       inkscape:collect="always" />
    <linearGradient
       id="linearGradient2044">
      <stop
         id="stop2046"
         offset="0.0000000"
         style="stop-color:#eeeeec;stop-opacity:1.0000000;" />
      <stop
         id="stop2048"
         offset="1.0000000"
         style="stop-color:#d3d7cf;stop-opacity:1.0000000;" />
    </linearGradient>
    <linearGradient
       id="linearGradient6439">
      <stop
         id="stop6441"
         offset="0.0000000"
         style="stop-color:#555753;stop-opacity:1.0000000;" />
      <stop
         id="stop6443"
         offset="1.0000000"
         style="stop-color:#d3d7cf;stop-opacity:0.0000000;" />
    </linearGradient>
    <inkscape:perspective
       id="perspective2543"
       inkscape:persp3d-origin="24 : 16 : 1"
       inkscape:vp_z="48 : 24 : 1"
       inkscape:vp_y="0 : 1000 : 0"
       inkscape:vp_x="0 : 24 : 1"
       sodipodi:type="inkscape:persp3d" />
    <radialGradient
       inkscape:collect="always"
       xlink:href="#linearGradient9806"
       id="radialGradient2614"
       gradientUnits="userSpaceOnUse"
       gradientTransform="matrix(1,0,0,0.242494,0,31.50606)"
       cx="24.35099"
       cy="41.591846"
       fx="24.35099"
       fy="41.591846"
       r="19.136078" />
  </defs>
  <sodipodi:namedview
     id="base"
     pagecolor="#ffffff"
     bordercolor="#666666"
     borderopacity="1.0"
     inkscape:pageopacity="0.0"
     inkscape:pageshadow="2"
     inkscape:zoom="0.7"
     inkscape:cx="3.4891122"
     inkscape:cy="729.42476"
     inkscape:document-units="px"
     inkscape:current-layer="layer1"
     showgrid="false"
     inkscape:window-width="1014"
     inkscape:window-height="686"
     inkscape:window-x="0"
     inkscape:window-y="0" />
  <metadata
     id="metadata7">
    <rdf:RDF>
      <cc:Work
         rdf:about="">
        <dc:format>image/svg+xml</dc:format>
        <dc:type
           rdf:resource="http://purl.org/dc/dcmitype/StillImage" />
      </cc:Work>
    </rdf:RDF>
  </metadata>
  <g
     inkscape:label="Capa 1"
     inkscape:groupmode="layer"
     id="layer1">
    <path
       sodipodi:type="arc"
       style="opacity:0.55681817;fill:url(#radialGradient2614);fill-opacity:1;fill-rule:nonzero;stroke:none;stroke-width:1;stroke-linecap:round;stroke-linejoin:round;marker:none;marker-start:none;marker-mid:none;marker-end:none;stroke-miterlimit:4;stroke-dasharray:none;stroke-dashoffset:0;stroke-opacity:1;visibility:visible;display:inline;overflow:visible"
       id="path2612"
       sodipodi:cx="24.35099"
       sodipodi:cy="41.591846"
       sodipodi:rx="19.136078"
       sodipodi:ry="4.6403885"
       d="M 43.487068,41.591846 A 19.136078,4.6403885 0 1 1 5.2149124,41.591846 A 19.136078,4.6403885 0 1 1 43.487068,41.591846 z"
       transform="matrix(3.0859917,0,0,2.6281459,139.23732,133.83107)"
       inkscape:export-filename="/home/luis/programacion/pfc/MathTextRecognizer2/Common/Artwork/mathtextlearner.png"
       inkscape:export-xdpi="95.457581"
       inkscape:export-ydpi="95.457581" />
    <g
       inkscape:label="Layer 1"
       id="g2567"
       transform="matrix(3.6956298,0,0,3.6956298,69.585965,83.081869)"
       inkscape:export-filename="/home/luis/programacion/pfc/MathTextRecognizer2/Common/Artwork/mathtextlearner16.png"
       inkscape:export-xdpi="7.714262"
       inkscape:export-ydpi="7.714262">
      <path
         sodipodi:type="arc"
         style="opacity:0.55681817;fill:url(#radialGradient7194);fill-opacity:1;fill-rule:nonzero;stroke:none;stroke-width:1;stroke-linecap:round;stroke-linejoin:round;marker:none;marker-start:none;marker-mid:none;marker-end:none;stroke-miterlimit:4;stroke-dasharray:none;stroke-dashoffset:0;stroke-opacity:1;visibility:visible;display:inline;overflow:visible"
         id="path9804"
         sodipodi:cx="24.35099"
         sodipodi:cy="41.591846"
         sodipodi:rx="19.136078"
         sodipodi:ry="4.6403885"
         d="M 43.487068,41.591846 A 19.136078,4.6403885 0 1 1 5.2149124,41.591846 A 19.136078,4.6403885 0 1 1 43.487068,41.591846 z"
         transform="matrix(1.230947,0,0,1.581898,-6.109657,-25.83984)" />
      <g
         transform="translate(-97.58072,22.27386)"
         id="g6877">
        <path
           transform="matrix(0.724193,0,0,0.757974,46.04202,24.22526)"
           d="M 129.04698,-13.51829 A 25.102291,10.253048 0 1 1 78.842396,-13.51829 A 25.102291,10.253048 0 1 1 129.04698,-13.51829 z"
           sodipodi:ry="10.253048"
           sodipodi:rx="25.102291"
           sodipodi:cy="-13.51829"
           sodipodi:cx="103.94469"
           id="path4998"
           style="fill:none;fill-opacity:1;stroke:#888a85;stroke-width:1.40607989;stroke-miterlimit:4;stroke-dasharray:none;stroke-opacity:1"
           sodipodi:type="arc" />
        <g
           id="g4014"
           transform="translate(-0.21875,0)">
          <path
             sodipodi:nodetypes="cscsc"
             id="path2052"
             d="M 139.71031,13.665812 C 139.71031,17.868495 131.59598,21.279368 121.59797,21.279368 C 111.59996,21.279368 103.48563,17.868495 103.48563,13.665812 C 103.66602,4.2706381 101.27181,6.210754 121.59797,6.052256 C 142.38965,5.888721 139.45521,4.1168484 139.71031,13.665812 z"
             style="fill:url(#linearGradient6908);fill-opacity:1;stroke:none;stroke-width:0.30000001;stroke-miterlimit:4;stroke-opacity:1" />
          <path
             transform="matrix(0.720389,0,0,0.733991,46.71207,17.87483)"
             d="M 129.04698,-13.51829 A 25.102291,10.253048 0 1 1 78.842396,-13.51829 A 25.102291,10.253048 0 1 1 129.04698,-13.51829 z"
             sodipodi:ry="10.253048"
             sodipodi:rx="25.102291"
             sodipodi:cy="-13.51829"
             sodipodi:cx="103.94469"
             id="path1313"
             style="fill:url(#linearGradient6910);fill-opacity:1;stroke:none;stroke-width:0.30000001;stroke-miterlimit:4;stroke-dasharray:none;stroke-opacity:1"
             sodipodi:type="arc" />
        </g>
        <path
           sodipodi:type="arc"
           style="fill:url(#linearGradient6912);fill-opacity:1;stroke:none;stroke-width:0.30000001;stroke-miterlimit:4;stroke-dasharray:none;stroke-opacity:1"
           id="path5709"
           sodipodi:cx="103.94469"
           sodipodi:cy="-13.51829"
           sodipodi:rx="25.102291"
           sodipodi:ry="10.253048"
           d="M 129.04698,-13.51829 A 25.102291,10.253048 0 1 1 78.842396,-13.51829 A 25.102291,10.253048 0 1 1 129.04698,-13.51829 z"
           transform="matrix(0.720389,0,0,0.733991,46.53079,17.84489)" />
        <g
           id="g4018"
           transform="translate(-0.21875,-6.666669)">
          <path
             style="fill:url(#linearGradient6914);fill-opacity:1;stroke:none;stroke-width:0.30000001;stroke-miterlimit:4;stroke-opacity:1"
             d="M 139.71031,13.665812 C 139.71031,17.868495 131.59598,21.279368 121.59797,21.279368 C 111.59996,21.279368 103.48563,17.868495 103.48563,13.665812 C 103.66602,4.2706381 101.27181,6.210754 121.59797,6.052256 C 142.38965,5.888721 139.45521,4.1168484 139.71031,13.665812 z"
             id="path4020"
             sodipodi:nodetypes="cscsc" />
          <path
             sodipodi:type="arc"
             style="fill:url(#linearGradient6916);fill-opacity:1;stroke:none;stroke-width:0.30000001;stroke-miterlimit:4;stroke-dasharray:none;stroke-opacity:1"
             id="path4022"
             sodipodi:cx="103.94469"
             sodipodi:cy="-13.51829"
             sodipodi:rx="25.102291"
             sodipodi:ry="10.253048"
             d="M 129.04698,-13.51829 A 25.102291,10.253048 0 1 1 78.842396,-13.51829 A 25.102291,10.253048 0 1 1 129.04698,-13.51829 z"
             transform="matrix(0.720389,0,0,0.733991,46.71207,17.87483)" />
        </g>
        <path
           transform="matrix(0.720389,0,0,0.733991,46.53079,11.09489)"
           d="M 129.04698,-13.51829 A 25.102291,10.253048 0 1 1 78.842396,-13.51829 A 25.102291,10.253048 0 1 1 129.04698,-13.51829 z"
           sodipodi:ry="10.253048"
           sodipodi:rx="25.102291"
           sodipodi:cy="-13.51829"
           sodipodi:cx="103.94469"
           id="path4100"
           style="fill:url(#linearGradient6918);fill-opacity:1;stroke:none;stroke-width:0.30000001;stroke-miterlimit:4;stroke-dasharray:none;stroke-opacity:1"
           sodipodi:type="arc" />
        <g
           id="g4028"
           transform="translate(-0.21875,-13.33334)">
          <path
             style="fill:url(#linearGradient6920);fill-opacity:1;stroke:none;stroke-width:0.30000001;stroke-miterlimit:4;stroke-opacity:1"
             d="M 139.71031,13.665812 C 139.71031,17.868495 131.59598,21.279368 121.59797,21.279368 C 111.59996,21.279368 103.48563,17.868495 103.48563,13.665812 C 103.66602,4.2706381 101.27181,6.210754 121.59797,6.052256 C 142.38965,5.888721 139.45521,4.1168484 139.71031,13.665812 z"
             id="path4030"
             sodipodi:nodetypes="cscsc" />
          <path
             sodipodi:type="arc"
             style="fill:url(#linearGradient6922);fill-opacity:1;stroke:none;stroke-width:0.30000001;stroke-miterlimit:4;stroke-dasharray:none;stroke-opacity:1"
             id="path4032"
             sodipodi:cx="103.94469"
             sodipodi:cy="-13.51829"
             sodipodi:rx="25.102291"
             sodipodi:ry="10.253048"
             d="M 129.04698,-13.51829 A 25.102291,10.253048 0 1 1 78.842396,-13.51829 A 25.102291,10.253048 0 1 1 129.04698,-13.51829 z"
             transform="matrix(0.720389,0,0,0.733991,46.71207,17.87483)" />
        </g>
        <path
           sodipodi:type="arc"
           style="fill:url(#linearGradient6924);fill-opacity:1;stroke:none;stroke-width:0.30000001;stroke-miterlimit:4;stroke-dasharray:none;stroke-opacity:1"
           id="path4104"
           sodipodi:cx="103.94469"
           sodipodi:cy="-13.51829"
           sodipodi:rx="25.102291"
           sodipodi:ry="10.253048"
           d="M 129.04698,-13.51829 A 25.102291,10.253048 0 1 1 78.842396,-13.51829 A 25.102291,10.253048 0 1 1 129.04698,-13.51829 z"
           transform="matrix(0.720389,0,0,0.733991,46.53079,4.46989)" />
        <g
           transform="translate(-0.21875,-20.00001)"
           id="g4034">
          <path
             sodipodi:nodetypes="cscsc"
             id="path4036"
             d="M 139.71031,13.665812 C 139.71031,17.868495 131.59598,21.279368 121.59797,21.279368 C 111.59996,21.279368 103.48563,17.868495 103.48563,13.665812 C 103.66602,4.2706381 101.27181,6.210754 121.59797,6.052256 C 142.38965,5.888721 139.45521,4.1168484 139.71031,13.665812 z"
             style="fill:url(#linearGradient6926);fill-opacity:1;stroke:none;stroke-width:0.30000001;stroke-miterlimit:4;stroke-opacity:1" />
          <path
             transform="matrix(0.720389,0,0,0.733991,46.71207,17.87483)"
             d="M 129.04698,-13.51829 A 25.102291,10.253048 0 1 1 78.842396,-13.51829 A 25.102291,10.253048 0 1 1 129.04698,-13.51829 z"
             sodipodi:ry="10.253048"
             sodipodi:rx="25.102291"
             sodipodi:cy="-13.51829"
             sodipodi:cx="103.94469"
             id="path4038"
             style="fill:url(#linearGradient6928);fill-opacity:1;stroke:none;stroke-width:0.30000001;stroke-miterlimit:4;stroke-dasharray:none;stroke-opacity:1"
             sodipodi:type="arc" />
        </g>
        <path
           sodipodi:type="arc"
           style="fill:none;fill-opacity:1;stroke:#888a85;stroke-width:1.3497262;stroke-miterlimit:4;stroke-dasharray:none;stroke-opacity:1"
           id="path1415"
           sodipodi:cx="103.94469"
           sodipodi:cy="-13.51829"
           sodipodi:rx="25.102291"
           sodipodi:ry="10.253048"
           d="M 129.04698,-13.51829 A 25.102291,10.253048 0 1 1 78.842396,-13.51829 A 25.102291,10.253048 0 1 1 129.04698,-13.51829 z"
           transform="matrix(0.724193,0,0,0.757974,46.13041,-1.993117)" />
        <path
           transform="matrix(0.688644,0,0,0.664847,49.88792,-3.252028)"
           d="M 129.04698,-13.51829 A 25.102291,10.253048 0 1 1 78.842396,-13.51829 A 25.102291,10.253048 0 1 1 129.04698,-13.51829 z"
           sodipodi:ry="10.253048"
           sodipodi:rx="25.102291"
           sodipodi:cy="-13.51829"
           sodipodi:cx="103.94469"
           id="path5078"
           style="fill:none;fill-opacity:1;stroke:#eeeeec;stroke-width:1.47788882;stroke-miterlimit:4;stroke-dasharray:none;stroke-opacity:1"
           sodipodi:type="arc" />
        <path
           style="fill:none;fill-opacity:1;stroke:#eeeeec;stroke-width:1;stroke-miterlimit:4;stroke-opacity:1"
           d="M 138.71881,10.256167 L 138.75535,13.947875 C 138.75535,17.710699 131.01098,20.764584 121.46881,20.764584 C 111.92663,20.764584 104.21063,17.710592 104.18226,13.947875 L 104.15631,10.506167"
           id="path5965"
           sodipodi:nodetypes="ccsss" />
        <path
           style="fill:none;fill-opacity:1;stroke:#888a85;stroke-width:1.04175198;stroke-miterlimit:4;stroke-opacity:1"
           d="M 139.49694,7.7180277 C 139.49694,12.00792 131.35279,15.489572 121.31804,15.489572 C 111.28328,15.489572 103.16581,12.007837 103.13913,7.7180277"
           id="path5000"
           sodipodi:nodetypes="css" />
        <path
           sodipodi:nodetypes="ccsss"
           id="path5976"
           d="M 138.71881,3.381167 L 138.75535,7.510375 C 138.75535,11.273199 131.01098,14.327084 121.46881,14.327084 C 111.92663,14.327084 104.20743,11.273115 104.18226,7.510375 L 104.15631,3.631167"
           style="fill:none;fill-opacity:1;stroke:#eeeeec;stroke-width:1;stroke-miterlimit:4;stroke-opacity:1" />
        <path
           sodipodi:nodetypes="css"
           id="path5978"
           d="M 139.49694,0.98319275 C 139.49694,5.2730849 131.35279,8.7547369 121.31804,8.7547369 C 111.28328,8.7547369 103.16581,5.2730019 103.13913,0.98319275"
           style="fill:none;fill-opacity:1;stroke:#888a85;stroke-width:1.04175198;stroke-miterlimit:4;stroke-opacity:1" />
        <path
           style="fill:none;fill-opacity:1;stroke:#eeeeec;stroke-width:1;stroke-miterlimit:4;stroke-opacity:1"
           d="M 138.71881,-3.2911681 L 138.75535,0.77554005 C 138.75535,4.5383639 131.01098,7.5922489 121.46881,7.5922489 C 111.92663,7.5922489 104.20703,4.5382827 104.18226,0.77554005 L 104.15631,-3.1661681"
           id="path5980"
           sodipodi:nodetypes="ccsss" />
        <path
           style="fill:none;fill-opacity:1;stroke:#888a85;stroke-width:1.04175198;stroke-miterlimit:4;stroke-opacity:1"
           d="M 139.49694,-5.6676956 C 139.49694,-1.3778034 131.35279,2.1038486 121.31804,2.1038486 C 111.28328,2.1038486 103.16581,-1.3778864 103.13913,-5.6676956"
           id="path5982"
           sodipodi:nodetypes="css" />
        <path
           sodipodi:nodetypes="ccsss"
           id="path5984"
           d="M 138.71881,-9.7545563 L 138.75535,-5.8753482 C 138.75535,-2.1125244 131.01098,0.94136055 121.46881,0.94136055 C 111.92663,0.94136055 104.20916,-2.1126202 104.18226,-5.8753482 L 104.15631,-9.5045563"
           style="fill:none;fill-opacity:1;stroke:#eeeeec;stroke-width:1;stroke-miterlimit:4;stroke-opacity:1" />
        <path
           sodipodi:nodetypes="css"
           id="path5986"
           d="M 139.67372,-12.286413 C 139.67372,-7.9965216 131.35279,-4.3380929 121.31804,-4.3380929 C 111.28328,-4.3380929 103.16581,-7.8198279 103.13913,-12.109636"
           style="fill:none;fill-opacity:1;stroke:#888a85;stroke-width:1;stroke-miterlimit:4;stroke-dasharray:none;stroke-opacity:1" />
        <path
           sodipodi:nodetypes="css"
           id="path6875"
           d="M 139.49694,13.968028 C 139.49694,18.25792 131.35279,21.739572 121.31804,21.739572 C 111.28328,21.739572 103.16581,18.257837 103.13913,13.968028"
           style="fill:none;fill-opacity:1;stroke:#888a85;stroke-width:1.04175198;stroke-miterlimit:4;stroke-opacity:1" />
        <path
           sodipodi:nodetypes="cc"
           id="path5008"
           d="M 139.62777,-12.352566 L 139.50277,14.331414"
           style="fill:none;fill-opacity:0.75;fill-rule:evenodd;stroke:#888a85;stroke-width:1;stroke-linecap:butt;stroke-linejoin:miter;stroke-miterlimit:4;stroke-dasharray:none;stroke-opacity:1" />
        <path
           style="fill:none;fill-opacity:0.75;fill-rule:evenodd;stroke:#888a85;stroke-width:1px;stroke-linecap:round;stroke-linejoin:miter;stroke-opacity:1"
           d="M 103.1751,-12.379964 L 103.1126,14.421312"
           id="path5006"
           sodipodi:nodetypes="cc" />
      </g>
      <g
         transform="translate(133.4225,-14.1004)"
         inkscape:label="Folder"
         id="g7048" />
      <g
         transform="translate(133.4225,-14.1004)"
         inkscape:label="pattern"
         id="layer2" />
    </g>
    <text
       xml:space="preserve"
       style="font-size:118.29542542px;font-style:normal;font-variant:normal;font-weight:normal;font-stretch:normal;fill:#000000;fill-opacity:1;stroke:none;stroke-width:1px;stroke-linecap:butt;stroke-linejoin:miter;stroke-opacity:1;font-family:Inconsolata;-inkscape-font-specification:Inconsolata"
       x="175.37622"
       y="223.60854"
       id="text2606"
       inkscape:export-filename="/home/luis/programacion/pfc/MathTextRecognizer2/Common/Artwork/mathtextlearner16.png"
       inkscape:export-xdpi="7.714262"
       inkscape:export-ydpi="7.714262"><tspan
         sodipodi:role="line"
         id="tspan2608"
         x="175.37622"
         y="223.60854"
         style="font-style:normal;font-variant:normal;font-weight:normal;font-stretch:normal;font-family:Times New Roman;-inkscape-font-specification:Times New Roman">∑</tspan></text>
  </g>
</svg>
